<?xml version="1.0" encoding="utf-8"?>
<!-- Uploaded to: SVG Repo, www.svgrepo.com, Generator: SVG Repo Mixer Tools -->
<svg width="800px" height="800px" viewBox="0 0 1024 1024" class="icon"  version="1.1" xmlns="http://www.w3.org/2000/svg"><path d="M362.666667 725.333333h298.666666v149.333334H362.666667z" fill="#455A64" /><path d="M725.333333 938.666667H298.666667v-21.333334c0-23.466667 19.2-42.666667 42.666666-42.666666h341.333334c23.466667 0 42.666667 19.2 42.666666 42.666666v21.333334zM341.333333 704h341.333334v42.666667H341.333333zM405.333333 789.333333h213.333334v42.666667H405.333333z" fill="#607D8B" /><path d="M533.333333 234.666667h-42.666666c-57.6 0-102.4 49.066667-98.133334 106.666666l12.8 170.666667 42.666667 21.333333 10.666667 170.666667h106.666666l10.666667-170.666667 42.666667-21.333333 12.8-170.666667c4.266667-57.6-40.533333-106.666667-98.133334-106.666666z" fill="#26A69A" /><path d="M544 241.066667L512 298.666667l-32-57.6V160h64z" fill="#00897B" /><path d="M565.333333 170.666667m-10.666666 0a10.666667 10.666667 0 1 0 21.333333 0 10.666667 10.666667 0 1 0-21.333333 0Z" fill="#00897B" /><path d="M458.666667 170.666667m-10.666667 0a10.666667 10.666667 0 1 0 21.333333 0 10.666667 10.666667 0 1 0-21.333333 0Z" fill="#00897B" /><path d="M565.333333 134.4c0-44.8-104.533333-29.866667-104.533333 0v40.533333c0 29.866667 23.466667 53.333333 53.333333 53.333334s53.333333-23.466667 53.333334-53.333334c-2.133333-6.4-2.133333-34.133333-2.133334-40.533333z" fill="#26A69A" /><path d="M512 85.333333c-36.266667 0-59.733333 29.866667-59.733333 66.133334v10.666666l14.933333 12.8V145.066667l68.266667-23.466667 21.333333 23.466667v29.866666l14.933333-12.8v-10.666666c0-23.466667-6.4-49.066667-36.266666-53.333334l-6.4-12.8H512z" fill="#4DB6AC" /></svg>